<mxfile host="app.diagrams.net" modified="2024-03-04T07:46:49.857Z" agent="Mozilla/5.0 (Windows NT 10.0; Win64; x64) AppleWebKit/537.36 (KHTML, like Gecko) Chrome/122.0.0.0 Safari/537.36" version="23.1.5" etag="rhZB6RTFxQXZADzK2tPQ" type="github">
  <diagram name="第 1 页" id="0uGdq9gRLY6KbLwwtcLP">
    <mxGraphModel>
      <root>
        <mxCell id="0" />
        <mxCell id="1" parent="0" />
      </root>
    </mxGraphModel>
  </diagram>
</mxfile>
